<?xml version="1.0" standalone="no"?>
<!DOCTYPE svg PUBLIC "-//W3C//DTD SVG 20010904//EN"
 "http://www.w3.org/TR/2001/REC-SVG-20010904/DTD/svg10.dtd">
<svg version="1.0" xmlns="http://www.w3.org/2000/svg"
 width="225.000000pt" height="225.000000pt" viewBox="0 0 225.000000 225.000000"
 preserveAspectRatio="xMidYMid meet"
     opacity="0.5"

>

<g transform="translate(0.000000,225.000000) scale(0.100000,-0.100000)"
fill="#000000" stroke="none">
<path d="M150 1125 l0 -480 462 2 463 3 0 475 0 475 -463 3 -462 2 0 -480z
m870 0 l0 -425 -405 0 -405 0 0 425 0 425 405 0 405 0 0 -425z"/>
<path d="M430 1330 l0 -80 50 0 50 0 0 35 c0 32 2 35 30 35 29 0 30 2 30 45
l0 45 -80 0 -80 0 0 -80z"/>
<path d="M685 1328 c11 -113 17 -261 10 -285 -11 -46 -40 -63 -105 -63 l-60 0
0 100 0 100 -50 0 -50 0 0 -145 0 -145 123 0 c147 0 187 16 225 90 19 39 22
59 22 165 0 136 -16 186 -68 223 -49 35 -55 30 -47 -40z"/>
<path d="M1174 1595 c-2 -5 -3 -220 -2 -478 l3 -467 463 -3 462 -2 0 480 0
480 -461 0 c-299 0 -463 -4 -465 -10z m626 -220 l0 -45 -105 0 -105 0 0 -35 0
-35 -50 0 -50 0 0 80 0 80 155 0 155 0 0 -45z m-2 -232 l-3 -48 -102 -3 -103
-3 0 -94 0 -95 -50 0 -50 0 0 145 0 145 156 0 155 0 -3 -47z"/>
</g>
</svg>
