<?xml version="1.0" encoding="UTF-8"?>
<!-- IMG source https://de.wikipedia.org/wiki/Datei:Freenet_Logo.svg -->
<!DOCTYPE svg PUBLIC "-//W3C//DTD SVG 1.1//EN" "http://www.w3.org/Graphics/SVG/1.1/DTD/svg11.dtd">
<!-- Creator: CorelDRAW -->
<svg opacity="0.5" xmlns="http://www.w3.org/2000/svg" xml:space="preserve" width="802px" height="152px" style="shape-rendering:geometricPrecision; text-rendering:geometricPrecision; image-rendering:optimizeQuality; fill-rule:evenodd; clip-rule:evenodd"
viewBox="0 0 819.083 155.354"
 xmlns:xlink="http://www.w3.org/1999/xlink">
 <defs>
  <style type="text/css">
   <![CDATA[
    .fil1 {fill:#000000}
    .fil0 {fill:#000000}
    .fil2 {fill:#000000;fill-rule:nonzero}
    .fil3 {fill:#000000;fill-rule:nonzero}
   ]]>
  </style>
 </defs>
 <g id="Ebene_x0020_1">
  <metadata id="CorelCorpID_0Corel-Layer"/>
  <path class="fil0" d="M291.401 62.1045l-4.26559 0c-16.9961,0 -19.1708,1.90577 -19.2132,17.0601l-0.00597063 2.45819 42.6837 0 0.00796083 -2.45819c0.0702259,-15.1543 -2.21709,-17.0601 -19.2069,-17.0601zm37.7975 35.9699l-61.2902 0c0.0139315,10.4631 0.700838,13.7364 3.15903,16.1946 2.36778,2.36778 5.33575,3.13287 16.0681,3.13287l4.26559 0c10.5635,0 13.4612,-0.526268 16.0761,-3.14709 1.18275,-1.18275 2.01239,-2.47212 2.52842,-4.62496l18.9439 0c-3.10274,17.8957 -12.4391,24.7178 -33.1063,24.7178l-13.1561 0c-12.2142,0 -19.7673,-2.30352 -25.4826,-8.01912 -5.64736,-5.64707 -7.87241,-12.8027 -7.87241,-25.3422l0 -22.3037c0,-12.5397 2.14658,-19.7733 7.87241,-25.4909 5.72327,-5.72356 13.2764,-8.03305 25.4886,-8.03305l13.1442 0c12.2122,0 19.7653,2.30949 25.4829,7.85621 5.73152,5.56889 7.87838,12.4692 7.87838,25.6677l0 19.3917z"/>
  <path class="fil0" d="M191.536 62.1045l-4.25933 0c-16.9961,0 -19.1708,1.90577 -19.2132,17.0601l-0.00597063 2.45819 42.6837 0 0.00796083 -2.45819c0.0702259,-15.1543 -2.21709,-17.0601 -19.2132,-17.0601zm37.8037 35.9699l-61.2902 0c0.0139315,10.4631 0.700838,13.7364 3.15903,16.1946 2.36778,2.36778 5.33575,3.13287 16.0681,3.13287l4.25933 0c10.5615,0 13.4595,-0.526268 16.0823,-3.14709 1.18275,-1.18275 2.00414,-2.47212 2.52842,-4.62496l18.9439 0c-3.10274,17.8957 -12.4473,24.7178 -33.1063,24.7178l-13.1561 0c-12.2142,0 -19.7673,-2.30352 -25.4829,-8.01912 -5.64707,-5.64707 -7.87241,-12.8027 -7.87241,-25.3422l0 -22.3037c0,-12.5397 2.14687,-19.7733 7.87241,-25.4909 5.71559,-5.72356 13.2687,-8.03305 25.4889,-8.03305l13.1422 0c12.2142,0 19.7673,2.30949 25.4846,7.85621 5.7318,5.56889 7.87867,12.4692 7.87867,25.6677l0 19.3917z"/>
  <path class="fil1" d="M490.544 62.1045l-4.2636 0c-16.9958,0 -19.1708,1.90577 -19.2152,17.0601l-0.00597063 2.45819 42.6857 0 0.00597063 -2.45819c0.0722161,-15.1543 -2.21709,-17.0601 -19.2069,-17.0601zm37.7975 35.9699l-61.2902 0c0.0139315,10.4631 0.702828,13.7364 3.16102,16.1946 2.36579,2.36778 5.33404,3.13287 16.0681,3.13287l4.2636 0c10.5575,0 13.4612,-0.526268 16.0761,-3.14709 1.18275,-1.18275 2.00414,-2.47212 2.52842,-4.62496l18.9459 0c-3.10473,17.8957 -12.4411,24.7178 -33.1083,24.7178l-13.1561 0c-12.2142,0 -19.7653,-2.30352 -25.4826,-8.01912 -5.64736,-5.64707 -7.87241,-12.8027 -7.87241,-25.3422l0 -22.3037c0,-12.5397 2.14687,-19.7733 7.87241,-25.4909 5.72356,-5.72356 13.2764,-8.03305 25.4909,-8.03305l13.1419 0c12.2202,0 19.7653,2.30949 25.4829,7.85621 5.73152,5.56889 7.87838,12.4692 7.87838,25.6677l0 19.3917z"/>
  <path class="fil2" d="M606.294 134.157l-18.1507 0c-12.2142,0 -19.5885,-2.31774 -25.4687,-8.02708 -5.71758,-5.71758 -7.86417,-12.7746 -7.86417,-25.3143l0 -37.9177 -11.0033 0 0 -17.4197 11.0033 0 0 -21.844 18.5763 0 0 21.844 25.264 0 -2.26742 17.4197 -22.9966 0 0 37.9177c0,13.4393 3.30147,16.239 19.191,15.9197l13.7162 0 0 17.4217z"/>
  <path class="fil2" d="M394.547 45.4137c12.2142,0 19.5885,2.30949 25.4687,8.01883 5.72555,5.55496 7.87241,12.7888 7.87241,25.3143l0 55.3457 -18.5763 0 0 -52.0582c0,-10.216 -0.672975,-13.4473 -3.1451,-16.0681 -2.45194,-2.45222 -5.342,-3.13088 -16.0539,-3.13088l-21.3319 0 0 71.2571 -18.5763 0 0 -88.6789 44.3424 0z"/>
  <path class="fil3" d="M54.7009 62.8354l-25.1292 0 0 71.2571 -18.5766 0 0 -71.2571 -10.995 0 0 -17.4217 11.0033 0c0.212668,-13.0157 2.20885,-19.3275 7.86417,-24.8182 5.88021,-5.70934 13.2545,-8.01883 25.4687,-8.01883l18.1507 0 0 17.4194 -13.7225 0c-15.8492,-0.317296 -18.7952,1.77129 -19.1788,15.4176l27.5593 0 -2.44398 17.4217z"/>
  <path class="fil3" d="M72.484 134.093l0 -88.6789 32.7529 0c23.7537,0 32.9215,8.6213 33.3391,29.5293l-18.7591 0c-0.283178,-3.98212 -1.16285,-6.82983 -3.23125,-8.97072 -2.57078,-2.65693 -5.98683,-3.13685 -16.5139,-3.13685l-9.0111 0 0 71.2571 -18.5766 0z"/>
  <path class="fil3" d="M710.171 34.0709c-5.67551,-1.23308 -11.8247,-3.6128 -31.8752,-14.0136 -26.5474,-13.7805 -32.4697,-14.6442 -35.9338,-9.06938 -4.57691,7.37657 -0.389797,26.0433 17.9036,60.4469 11.9791,22.5366 30.7263,51.4574 34.0701,55.3255 0.765093,0.877398 1.6368,0.941937 2.4019,0.552141 0.821387,-0.42562 1.07642,-1.14863 0.502101,-2.23102 -2.76156,-5.20752 -12.6381,-25.4428 -17.01,-35.9278 -10.5131,-25.2219 -12.8789,-33.765 -9.2883,-35.6989 0.928006,-0.496131 2.28959,-0.148697 5.20752,1.3957 10.1518,5.38408 32.3409,22.5368 36.1968,34.3533 1.67092,5.18535 2.54263,11.3288 2.88182,32.6744 0.448081,28.2684 2.60092,33.4759 9.52315,33.4759 9.15382,0 24.4486,-12.7024 47.3388,-44.6418 14.9917,-20.9199 32.5538,-50.4777 34.4818,-55.1046 0.439836,-1.05424 0.0642553,-1.79119 -0.686622,-2.20913 -0.807456,-0.447797 -1.6007,-0.291139 -2.32371,0.715053 -3.47235,4.8237 -17.3714,22.8982 -24.9527,31.6622 -18.2289,21.0766 -25.0087,27.2542 -28.6016,25.3263 -0.927721,-0.502101 -1.28141,-1.77129 -1.3033,-4.88824 -0.0642553,-10.8748 4.81773,-37.3156 13.8931,-46.3326 3.98241,-3.94601 9.27409,-7.71575 28.9831,-18.6628 20.6871,-11.4792 27.3526,-16.5801 27.5033,-20.9822l0 -0.335492c-0.0420787,-1.03633 -0.441826,-2.04224 -1.09063,-3.08852 -4.57663,-7.36832 -24.0528,-13.333 -65.2362,-15.8051 -26.979,-1.61662 -63.2804,-0.978045 -68.5581,-0.220913 -1.19668,0.178834 -1.70078,0.851525 -1.71499,1.6587 -0.0139315,0.877682 0.532239,1.43807 1.82758,1.51625 6.22765,0.381551 30.0115,2.54263 41.9564,4.2636 28.7483,4.14504 37.8879,6.51879 37.8879,10.3727 0,1.00022 -1.00619,1.91998 -3.89598,3.49225 -10.0955,5.4907 -37.1589,14.787 -50.0879,11.9813z"/>
 </g>
</svg>
