<!-- IMG source https://de.wikipedia.org/wiki/Datei:Web.de_logo.svg -->
<svg xmlns="http://www.w3.org/2000/svg" width="256" height="256" opacity="0.2" viewBox="0 0 256 256">
    <path fill="#ffffff" d="M224 256H32c-17.6 0-32-14.4-32-32V32C0 14.4 14.4 0 32 0h192c17.6 0 32 14.4 32 32v192c0 17.6-14.4 32-32 32z"/>
    <path fill="#333" opacity="1" d="M57.73 78.61c2.06.76 4.79-.61 6.77-.96 1.96-.34 10.01-2.15 8.49-.32-.85 1.03-3.06 1.04-5.03 1.61-2.73.8-7.11 1.26-7.28 4.77-.39 8.35 12.59 2.8 16.4 1.44 10.31-3.59 22.13-4.2 32.56-5.95 11.58-1.93 23.47-2.1 35.16-2.55 12.3-.47 25.53-.99 37.61.72 3.22.45 6.26.81 9.53 1.15 2.84.29 8.81 2.89 11.34 1.7 2.29-1.08 1.25-3.79 2.44-5.18 1.71-1.99 5.07-1.64 2.73-5.9-1.78-3.24-8.26-4.29-11.62-3.63-.34-2.05 1.23-1.14 1.64-2.2.59-1.53.59-3.9-.4-5.6-1.8-3.1-10.36-4.19-10.36-4.19-20.53-3.31-57.47-6.87-96.79-2.28-6.52.76-17.97 1.58-24.65 4.28-2.96 1.2-2.91 1.22-3.28 3.16-.35 2.76.97 5.97 4.29 5.28 6.35-1.31 17.57-3.12 20.78-3.94 15.86-4.04 68.64-3.25 75.44-1.64 4.2.9 27.28 1.65 27.84 5.88-53.86-2.23-74.42-2.21-122.79 3.54-4.04.67-6.47 1.55-9.65 2.63-3.95 1.34-6.6 6.17-1.17 8.18zm71.22-33.39c1.88.16 16.76.61 17.62-5.21.49-3.3-2.78-8.66-3.71-9.63-1.23-1.02-3.95 7.87-4.64-.87-.11-1.43-.47-3.63-1.15-4.98-.34-.67-.75-1.17-1.26-1.17-.32 0-.67.19-.82.29-.43.28-1.04 1.18-1.35 1.94-.84 2.08-1.21 10.1-3.29 10.23-2.26.15-2.19-5.14-1.89-6.67.05-.25-.01-.31-.11-.29-.22.06-.28.1-.46.16-1.36.52-2.91 2.1-3.02 2.22-2.13 2.18-5.01 7.89-3.56 10.51 1.51 2.69 6.05 3.33 7.64 3.47zm103.68 114.69c-.16-1.14-.49-1.84-1.27-2.89-2.8-3.84-15.98-6.4-15.98-6.36-6.62-1.45-14.23-2.69-22.74-3.73 1.21-5.75-.06-16.36-.09-20.05.17-6.59.03-23.62-.46-27.92-.38-4.05-.92-5.81-3.14-9.16-1.59-2.39-2.08-4.72-5.75-4.36-3.34.33-4.57 4.97-3.99 7.78l1.44 5.73c.6 1.19 2.22 38.34 1.85 41.57.03 1.57-.12 3.59-.16 5.3-8.67-.82-18.1-1.46-28.2-1.9l.4-.31c4.83-3.76 3.16-8.75 2.35-14.19-1.1-8.71-.26-33.42-1.3-36.4-.7-2.33-2.69-3.68-4.42-5.46-2.13-2.19-4.8-2.87-7.26-.35-2.41 2.18.6 33.39.77 47.1.22 2.87-.42 6.47.72 9.24-.93-.04-25.73-.55-27.81-.51.03-.48-.3-1.1-.53-1.57-.62-1.26-1.5-4.19-1.75-5.56-.41-2.24-.75-5.19-.86-7.9-.19-5.67.34-23.21.97-27.79.71-5.07 3.41-14.03-5.39-12.06-.95.21-5.61.79-6.86 1.77-1.45 1.14-1.31 3.99-1.36 5.57-.21 5.99-.87 24.86-.83 29.39.05 3.81.72 8.71 2.12 12.42.85 2.26 3.37 4.51 6 5.93-4.84.13-9.5.29-11.16.38-8.17.46-14.44.91-20.55 1.51-.04-.18-.04-.18-.08-.29-1.02-3.15.45-16.17 3.28-40.59.68-5.89-.35-6.12-3.94-9.44-2.06-1.9-3.8-3.19-7.37-.32-2.27 1.82-1.68 4.15-2.07 6.78-1.36 9.16-3.34 23.54-4.18 32.86-.24 2.57.12 8.46.78 12.03.06.17.03.36.12.54-3.55.48-7.12 1-11.15 1.61-9.81 1.52-18.48 1.9-24.38 4.54-3.62 1.63-3.83 2.17-4.68 3.49-.21.36-.38.77-.45 1.56-.01.1.07 1.4.17 1.79.2.78.58 1.5 1.11 2.1.58.64 1.33 1.12 2.16 1.37.45.14 3.18.37 3.47.4 6.58.66 10.21-.94 16.65-3.47 31.89-12.72 123.13-8.87 143.22-5.07 8.73 1.74 22.2 3.56 30.55 8.34 1.36.74 2.64 1.29 3.81 1.64.58.18 1.15.26 1.66.39 1.28.3 2.64.03 2.87-.02.46-.09.9-.22 1.3-.39.81-.34 1.46-.84 1.77-1.45.22-.43.5-1.27.63-1.96.09-.26.05-1.18-.01-1.66zM41.8 187.33h-8.47l7.46 38.09h9.8l5.7-25.79 5.75 25.79h9.8l7.83-38.09h-7.94l-4.79 29.14-6.23-29.14h-8.26l-6.34 29.04-4.31-29.04zm66.78 0H84.76v38.09h24.35v-6.39h-16.3v-9.48h13.9v-6.39h-13.9v-9.43h15.77v-6.4zm6.79 0v38.09h14.17c8.95 0 13.21-4.26 13.21-10.65 0-8.15-7.19-9.06-7.19-9.06s5.11-2.18 5.11-8.52c0-6.39-4.1-9.86-12.57-9.86h-12.73zm8.05 16.04V193.3h2.66c4.74 0 6.66 1.6 6.66 4.95 0 3.41-1.92 5.11-5.86 5.11l-3.46.01zm0 16.09v-10.28h4.9c4.1 0 6.34 1.6 6.34 5.01s-2.08 5.27-6.82 5.27h-4.42zm28.6 6.5c2.45 0 4.15-1.71 4.15-4.1 0-2.45-1.7-3.94-4.05-3.94-2.45 0-4.21 1.54-4.21 4.05.01 2.23 1.4 3.99 4.11 3.99zm11.06-38.63v38.09h9.48c13.11 0 19.82-7.46 19.82-19.39 0-11.67-5.91-18.7-19.02-18.7h-10.28zm8.05 31.7v-25.3h2.18c7.35 0 10.92 4.37 10.92 12.84 0 8.42-3.46 12.47-10.87 12.47l-2.23-.01zm51.1-31.7h-23.81v38.09h24.35v-6.39h-16.3v-9.48h13.9v-6.39h-13.9v-9.43h15.77v-6.4z"/></svg>